<?xml version="1.0" encoding="UTF-8"?>
<!DOCTYPE svg PUBLIC "-//W3C//DTD SVG 1.1//EN" "http://www.w3.org/Graphics/SVG/1.1/DTD/svg11.dtd">
<svg xmlns="http://www.w3.org/2000/svg" version="1.1" width="36px" height="36px" style="shape-rendering:geometricPrecision; text-rendering:geometricPrecision; image-rendering:optimizeQuality; fill-rule:evenodd; clip-rule:evenodd" xmlns:xlink="http://www.w3.org/1999/xlink">
<g><path style="opacity:0.977" fill="#e87121" d="M -0.5,-0.5 C 11.5,-0.5 23.5,-0.5 35.5,-0.5C 35.5,11.5 35.5,23.5 35.5,35.5C 23.5,35.5 11.5,35.5 -0.5,35.5C -0.5,23.5 -0.5,11.5 -0.5,-0.5 Z"/></g>
<g><path style="opacity:1" fill="#e7aa81" d="M 11.5,2.5 C 9.5,2.5 7.5,2.5 5.5,2.5C 5.5,12.8333 5.5,23.1667 5.5,33.5C 7.5,33.5 9.5,33.5 11.5,33.5C 9.39263,34.4682 7.0593,34.8016 4.5,34.5C 4.5,23.5 4.5,12.5 4.5,1.5C 7.0593,1.19845 9.39263,1.53178 11.5,2.5 Z"/></g>
<g><path style="opacity:1" fill="#e5e2df" d="M 11.5,33.5 C 9.5,33.5 7.5,33.5 5.5,33.5C 5.5,23.1667 5.5,12.8333 5.5,2.5C 7.5,2.5 9.5,2.5 11.5,2.5C 11.5,6.83333 11.5,11.1667 11.5,15.5C 12.552,15.6495 13.552,15.4828 14.5,15C 18.1321,10.3663 22.1321,6.03296 26.5,2C 28.8333,1.33333 31.1667,1.33333 33.5,2C 29.1667,7 24.8333,12 20.5,17C 25.1949,22.2275 29.5282,27.7275 33.5,33.5C 31.2351,34.6474 28.9018,34.8141 26.5,34C 23.2868,29.7421 19.9535,25.5754 16.5,21.5C 14.9547,20.5481 13.288,20.2148 11.5,20.5C 11.5,24.8333 11.5,29.1667 11.5,33.5 Z"/></g>
</svg>
